<svg width="15" height="45" viewBox="0 0 15 45" fill="none" xmlns="http://www.w3.org/2000/svg">
<path d="M9.78847 17.2116L13.2186 17.2116V15.4965L9.51175 11.7896L11.4171 8.48943C11.83 7.77583 12.0667 6.94748 12.0667 6.06375C12.0667 3.38464 9.89484 1.2128 7.21573 1.2128C4.53662 1.2128 2.36477 3.38464 2.36477 6.06375C2.36477 6.94739 2.60103 7.77584 3.01383 8.48939L4.91949 11.7901L1.21309 15.4965V17.2116L4.64326 17.2116M9.78847 17.2116L9.78847 36.5797C9.78847 37.3562 9.48001 38.1009 8.93094 38.65C8.38187 39.1991 8.0734 39.9438 8.0734 40.7203L8.0734 42.9377H6.35833L6.35833 40.7203C6.35833 39.9438 6.04986 39.1991 5.50079 38.65C4.95172 38.1009 4.64326 37.3562 4.64326 36.5797L4.64326 17.2116M9.78847 17.2116H4.64326" stroke="#FF7C68" stroke-width="2.42548" stroke-linecap="round" stroke-linejoin="round"/>
</svg>
